# AST/ASF file generated using VICON BodyLanguage
# -----------------------------------------------
:version 1.10
:name VICON
:units
  mass 1.0
  length 0.45
  angle deg
:documentation
   .ast/.asf automatically generated from VICON data using
   VICON BodyBuilder and BodyLanguage model FoxedUp or BRILLIANT.MOD
:root
   order TX TY TZ RX RY RZ
   axis XYZ
   position 0 0 0  
   orientation 0 0 0 
:bonedata
  begin
     id 1 
     name lhipjoint
     direction 0.547975 -0.797114 0.253638 
     length 2.36201 
     axis 0 0 0  XYZ
  end
  begin
     id 2 
     name lfemur
     direction 0.34202 -0.939693 0  
     length 7.69075  
     axis 0 0 20  XYZ
    dof rx ry rz
    limits (-160.0 20.0)
           (-70.0 70.0)
           (-60.0 70.0)
  end
  begin
     id 3 
     name ltibia
     direction 0.34202 -0.939693 0   
     length 7.91399   
     axis 0 0 20   XYZ
    dof rx
    limits (-10.0 170.0)
  end
  begin
     id 4 
     name lfoot
     direction 0.0705293 -0.193778 0.978507   
     length 2.13618   
     axis -90 7.62852e-016 20   XYZ
    dof rx rz
    limits (-45.0 90.0)
           (-70.0 20.0)
  end
  begin
     id 5 
     name ltoes
     direction 1.53592e-011 -4.21925e-011 1   
     length 1.07518   
     axis -90 7.62852e-016 20   XYZ
    dof rx
    limits (-90.0 20.0)
  end
  begin
     id 6 
     name rhipjoint
     direction -0.57 -0.782963 0.249136   
     length 2.4047  
     axis 0 0 0  XYZ 
  end
  begin
     id 7 
     name rfemur
     direction -0.34202 -0.939693 0   
     length 7.51486   
     axis 0 0 -20   XYZ
    dof rx ry rz
    limits (-160.0 20.0)
           (-70.0 70.0)
           (-70.0 60.0)
  end
  begin
     id 8 
     name rtibia
     direction -0.34202 -0.939693 0   
     length 8.08317   
     axis 0 0 -20   XYZ
    dof rx
    limits (-10.0 170.0)
 end
 begin
     id 9 
     name rfoot
     direction -0.104954 -0.281256 0.953876   
     length 2.30343  
     axis -90 -7.62852e-016 -20   XYZ
    dof rx rz
    limits (-45.0 90.0)
           (-20.0 70.0)
  end
  begin
     id 10 
     name rtoes
     direction -1.53556e-011 -4.21922e-011 1   
     length 1.14803   
     axis -90 -7.62852e-016 -20   XYZ
    dof rx
    limits (-90.0 20.0)
  end
  begin
     id 11 
     name lowerback
     direction -0.0152855 0.99353 -0.11254   
     length 2.05311   
     axis 0 0 0   XYZ
    dof rx ry rz
    limits (-20.0 45.0)
           (-30.0 30.0)
           (-30.0 30.0)
  end
  begin
     id 12 
     name upperback
     direction -0.00157509 0.999443 -0.033332   
     length 2.06353   
     axis 0 0 0   XYZ
    dof rx ry rz
    limits (-20.0 45.0)
           (-30.0 30.0)
           (-30.0 30.0)
  end
  begin
     id 13 
     name thorax
     direction 0.00577788 0.999804 0.0189484   
     length 2.08472   
     axis 0 0 0   XYZ
    dof rx ry rz
    limits (-20.0 45.0)
           (-30.0 30.0)
           (-30.0 30.0)
  end
  begin
     id 14 
     name lowerneck
     direction -1.09301e-005 0.994719 0.10264   
     length 1.76249   
     axis 0 0 0   XYZ
    dof rx ry rz
    limits (-20.0 45.0)
           (-30.0 30.0)
           (-30.0 30.0)
  end
  begin
     id 15 
     name upperneck
     direction 0.0495018 0.988526 -0.142706   
     length 1.77897   
     axis 0 0 0   XYZ
    dof rx ry rz
    limits (-20.0 45.0)
           (-30.0 30.0)
           (-30.0 30.0)
  end
  begin
     id 16
     name head
     direction 0.0142736 0.998114 -0.0597101  
     length 1.78934  
     axis 0 0 0   XYZ
    dof rx ry rz
    limits (-20.0 45.0)
           (-30.0 30.0)
           (-30.0 30.0)
  end
  begin
     id 17 
     name lclavicle
     direction 0.918111 0.396107 -0.0130883  
     length 3.37276  
     axis 0 0 0   XYZ
    dof ry rz
    limits (-20.0 10.0)
           (0.0 20.0)
  end
  begin
     id 18 
     name lhumerus
     direction 1 -4.48975e-011 -3.26108e-027   
     length 5.34298   
     axis 180 -30 -90   XYZ
    dof rx ry rz
    limits (-60.0 90.0)
           (-90.0 90.0)
           (-90.0 90.0)
  end
  begin
     id 19
     name lradius
     direction 1 -4.48964e-011 -8.84413e-028   
     length 3.67262   
     axis 180 -30 -90   XYZ
    dof rx
    limits (-10.0 170.0)
  end
  begin
     id 20
     name lwrist
     direction 1 -4.48991e-011 -1.24264e-027   
     length 1.83631   
     axis -2.17013e-015 90 90   XYZ
    dof ry
    limits (-180.0 0.0)
 end
  begin
     id 21 
     name lhand
     direction 1 -4.48855e-011 -2.48528e-027   
     length 0.599298   
     axis 1.58582e-015 90 90   XYZ
    dof rx rz
    limits (-90.0 90.0)
           (-45.0 45.0)
  end
  begin
     id 22 
     name lfingers
     direction 1 -4.48811e-011 -4.97056e-027   
     length 0.48317   
     axis 3.17164e-015 90 90   XYZ
    dof rx
    limits (0.0 90.0)
  end
  begin
     id 23
     name lthumb
     direction 0.707107 -6.34882e-011 0.707107   
     length 0.693738   
     axis -90 45 2.85299e-015   XYZ
    dof rx rz
    limits (-45.0 45.0)
           (-45.0 45.0)
  end
  begin
     id 24 
     name rclavicle
     direction -0.920511 0.384752 -0.0680135   
     length 3.43787  
     axis 0 0 0   XYZ 
    dof ry rz
    limits (-10.0 20.0)
           (-20.0 0.0)
  end
  begin
     id 25 
     name rhumerus
     direction -0.999976 -0.00330524 0.00603274  
     length 5.5498   
     axis 180 30 90   XYZ
    dof rx ry rz
    limits (-90.0 60.0)
           (-90.0 90.0)
           (-90.0 90.0)
  end
  begin
     id 26 
     name rradius
     direction -1 -4.48967e-011 8.62438e-027   
     length 3.69401   
     axis 180 30 90   XYZ
    dof rx
    limits (-10.0 170.0)
  end
  begin
     id 27 
     name rwrist
     direction -1 -4.4897e-011 9.54866e-027   
     length 1.84701   
     axis -7.69462e-015 -90 -90   XYZ
    dof ry
    limits (-180.0 0.0)
  end
  begin
     id 28
     name rhand
     direction -1 -4.48982e-011 1.90973e-026   
     length 0.638113   
     axis -1.21857e-014 -90 -90   XYZ
    dof rx rz
    limits (-90.0 90.0)
           (-45.0 45.0)
  end
  begin
     id 29
     name rfingers
     direction -1 -4.48936e-011 3.81946e-026   
     length 0.514463   
     axis -2.43714e-014 -90 -90   XYZ
    dof rx
    limits (0.0 90.0)
  end
  begin
     id 30
     name rthumb
     direction -0.707107 -6.34942e-011 0.707107   
     length 0.738669   
     axis -90 -45 -2.85299e-015   XYZ
    dof rx rz
    limits (-45.0 45.0)
           (-45.0 45.0)
  end
:hierarchy
  begin
    root lhipjoint rhipjoint lowerback
    lhipjoint lfemur
    lfemur ltibia
    ltibia lfoot
    lfoot ltoes
    rhipjoint rfemur
    rfemur rtibia
    rtibia rfoot
    rfoot rtoes
    lowerback upperback
    upperback thorax
    thorax lowerneck lclavicle rclavicle
    lowerneck upperneck
    upperneck head
    lclavicle lhumerus
    lhumerus lradius
    lradius lwrist
    lwrist lhand lthumb
    lhand lfingers
    rclavicle rhumerus
    rhumerus rradius
    rradius rwrist
    rwrist rhand rthumb
    rhand rfingers
  end

#!OML:ASF F:\twosubjects\two\Thursday\Session 1\Rory.ASF
:FULLY-SPECIFIED
:DEGREES
34
root 6.65912 18.4812 11.9245 -1.72213 -71.6807 8.05391
lowerback -0.811153 -2.36724 -6.4955
upperback 2.47536 -3.00124 -1.33779
thorax 3.27885 -1.65327 2.13178
lowerneck 1.51149 -15.1326 -15.6454
upperneck 14.6 -25.0772 22.665
head 9.32307 -12.1034 7.399
rclavicle -5.59579e-014 -3.18055e-015
rhumerus -44.9247 -1.69589 -77.494
rradius 32.3063
rwrist 29.6041
rhand -18.5338 25.5284
rfingers 7.12502
rthumb 7.75514 -4.30942
lclavicle -5.59579e-014 -3.18055e-015
lhumerus -56.5401 6.30513 78.3082
lradius 26.136
lwrist -22.6159
lhand -13.163 27.9041
lfingers 7.12502
lthumb 12.936 57.4831
rfemur -12.4728 8.31212 16.5226
rtibia 29.1747
rfoot -18.9324 -17.9033
rtoes -7.12816
lfemur -12.401 -4.88203 -12.9212
ltibia 25.642
lfoot -16.8811 11.6413
ltoes -1.46188
35
root 6.6655 18.4813 11.9274 -3.31274 -71.7871 9.54552
lowerback -0.595496 -2.22661 -6.97251
upperback 2.63104 -2.81629 -1.44929
thorax 3.32349 -1.57874 2.29404
lowerneck 1.17503 -15.0347 -15.0831
upperneck 14.2471 -24.6894 22.3108
head 9.04495 -11.889 7.24058
rclavicle 4.77083e-015 -9.54166e-015
rhumerus -44.924 -1.73422 -77.3534
rradius 32.2008
rwrist 30.2706
rhand -18.3269 26.0473
rfingers 7.12502
rthumb 7.95482 -3.78302
lclavicle 4.77083e-015 -9.54166e-015
lhumerus -56.6054 6.01654 78.6028
lradius 26.1061
lwrist -23.176
lhand -13.2102 27.9956
lfingers 7.12502
lthumb 12.8905 57.5775
rfemur -12.4813 8.65025 16.0294
rtibia 29.5436
rfoot -19.2117 -18.059
rtoes -6.4609
lfemur -12.0722 -4.60298 -13.4758
ltibia 25.3944
lfoot -16.5453 11.5814
ltoes -2.11218
36
root 6.66869 18.4806 11.93 -4.79778 -71.7272 11.0088
lowerback -0.454589 -2.1525 -7.45478
upperback 2.74654 -2.71577 -1.59532
thorax 3.3737 -1.54569 2.41688
lowerneck 0.593668 -15.0774 -13.6306
upperneck 13.9384 -24.3602 21.2736
head 8.6247 -11.6702 6.69756
rclavicle 5.69518e-014 0
rhumerus -45.0308 -1.78057 -77.3327
rradius 32.2342
rwrist 30.8467
rhand -17.8313 26.1415
rfingers 7.12502
rthumb 8.43311 -3.67015
lclavicle 5.69518e-014 0
lhumerus -56.81 5.34445 79.0766
lradius 26.2271
lwrist -23.1045
lhand -13.2523 27.7447
lfingers 7.12502
lthumb 12.85 57.3292
rfemur -12.6533 7.34908 15.4374
rtibia 29.9658
rfoot -19.3865 -16.7728
rtoes -5.85024
lfemur -11.8296 -4.48463 -14.0095
ltibia 25.1106
lfoot -15.8951 11.3426
ltoes -3.78901
37
root 6.67835 18.4814 11.9313 -7.03435 -71.7656 13.1386
lowerback -0.0651384 -2.11097 -8.2607
upperback 2.80761 -2.68414 -1.71353
thorax 3.25206 -1.54988 2.75559
lowerneck 0.519582 -14.5745 -14.1866
upperneck 13.8969 -23.7222 21.8233
head 8.64929 -11.3716 7.07432
rclavicle -2.68359e-015 -1.90833e-014
rhumerus -45.1713 -1.07318 -77.5107
rradius 32.3727
rwrist 30.6943
rhand -17.2924 25.7414
rfingers 7.12502
rthumb 8.95318 -4.04865
lclavicle -2.68359e-015 -1.90833e-014
lhumerus -57.1573 4.91675 79.5986
lradius 26.3665
lwrist -22.7766
lhand -13.3027 27.8615
lfingers 7.12502
lthumb 12.8014 57.449
rfemur -12.6546 7.48129 14.6885
rtibia 30.3442
rfoot -19.5939 -16.5582
rtoes -5.45879
lfemur -11.4654 -4.52288 -14.7704
ltibia 24.8705
lfoot -15.4744 11.3983
ltoes -4.79457
38
root 6.68774 18.4785 11.9318 -8.42431 -71.8114 14.3477
lowerback 0.298587 -1.98205 -8.72246
upperback 2.94913 -2.54069 -1.74257
thorax 3.20147 -1.4948 2.99671
lowerneck 0.204225 -14.2726 -14.1402
upperneck 13.6909 -23.2035 21.9154
head 8.53879 -11.1033 7.16726
rclavicle -1.78906e-015 2.50469e-014
rhumerus -45.2234 -0.797556 -77.3381
rradius 32.431
rwrist 30.6275
rhand -16.9306 26.0505
rfingers 7.12502
rthumb 9.30234 -3.72424
lclavicle -1.78906e-015 2.50469e-014
lhumerus -57.2558 4.56453 80.1
lradius 26.3684
lwrist -22.6301
lhand -13.5893 28.1108
lfingers 7.12502
lthumb 12.5251 57.7154
rfemur -12.5857 8.17667 14.3156
rtibia 30.6966
rfoot -19.8658 -16.8958
rtoes -5.10229
lfemur -11.1593 -4.07117 -15.2028
ltibia 24.7182
lfoot -15.5947 10.9861
ltoes -3.00308
39
root 6.69956 18.4726 11.9348 -8.98032 -71.7978 14.693
lowerback 0.641216 -1.87452 -8.73199
upperback 3.11932 -2.4283 -1.8184
thorax 3.16947 -1.44414 2.93573
lowerneck -0.260722 -13.9407 -13.8011
upperneck 13.5746 -22.6362 21.8884
head 8.4233 -10.7909 7.1738
rclavicle 5.37713e-014 -1.59028e-014
rhumerus -45.1886 -1.00676 -77.0379
rradius 32.3037
rwrist 30.9638
rhand -16.4888 26.8178
rfingers 7.12502
rthumb 9.7286 -2.93755
lclavicle 5.37713e-014 -1.59028e-014
lhumerus -57.3847 4.14482 80.4754
lradius 26.4301
lwrist -22.6022
lhand -13.5492 28.0087
lfingers 7.12502
lthumb 12.5637 57.6109
rfemur -12.4971 8.79298 14.2624
rtibia 30.9974
rfoot -19.9219 -17.6036
rtoes -6.1959
lfemur -10.9462 -3.56935 -15.3561
ltibia 24.6535
lfoot -15.7016 10.4492
ltoes -1.26818
